<svg xmlns="http://www.w3.org/2000/svg" viewBox="0 0 871.67 335.44"><defs><style>.cls-1{opacity:0.35;}.cls-2,.cls-4,.cls-5,.cls-7{fill:#e8ebef;}.cls-2,.cls-3,.cls-4,.cls-5,.cls-6,.cls-7{stroke:#b1b9c3;}.cls-11,.cls-15,.cls-16,.cls-17,.cls-19,.cls-2,.cls-20,.cls-22,.cls-24,.cls-26,.cls-29,.cls-3,.cls-4,.cls-5,.cls-6,.cls-7,.cls-9{stroke-miterlimit:10;}.cls-10,.cls-16,.cls-17,.cls-19,.cls-2,.cls-25,.cls-26,.cls-3,.cls-6,.cls-9{stroke-width:2px;}.cls-12,.cls-19,.cls-22,.cls-3{fill:#fff;}.cls-4{stroke-width:1.73px;}.cls-5{stroke-width:1.94px;}.cls-13,.cls-14,.cls-20,.cls-24,.cls-26,.cls-27,.cls-29,.cls-6{fill:none;}.cls-7{stroke-width:1.51px;}.cls-8{fill:#f9fafb;}.cls-9{fill:#63c841;}.cls-10,.cls-11,.cls-15,.cls-16,.cls-17,.cls-19,.cls-20,.cls-21,.cls-22,.cls-23,.cls-24,.cls-25,.cls-26,.cls-27,.cls-29,.cls-9{stroke:#438e29;}.cls-10,.cls-21,.cls-23{fill:#a4df90;}.cls-10,.cls-11,.cls-12,.cls-13,.cls-14,.cls-17,.cls-21,.cls-23,.cls-25,.cls-26,.cls-27,.cls-29{stroke-linecap:round;}.cls-10,.cls-12,.cls-13,.cls-14,.cls-21,.cls-23,.cls-25,.cls-27{stroke-linejoin:round;}.cls-11,.cls-15,.cls-16,.cls-17,.cls-25{fill:#cbedc0;}.cls-12,.cls-13,.cls-14{stroke:#878787;}.cls-12,.cls-14,.cls-27,.cls-29{stroke-width:4px;}.cls-13{stroke-width:1.95px;}.cls-18,.cls-28{fill:#438e29;}.cls-18{opacity:0.15;}.cls-22,.cls-23{stroke-width:3px;}.cls-24{stroke-width:1.21px;}.cls-28{opacity:0.14;}</style></defs><title>Asset 22</title><g id="Layer_2" data-name="Layer 2"><g id="Layer_1-2" data-name="Layer 1"><g class="cls-1"><rect class="cls-2" x="142.86" y="49.58" width="133.74" height="283.72" rx="3" ry="3"/><rect class="cls-3" x="220.98" y="244.3" width="37.5" height="56.5" rx="3" ry="3"/><rect class="cls-3" x="160.98" y="244.3" width="37.5" height="56.5" rx="3" ry="3"/><rect class="cls-3" x="220.98" y="154.3" width="37.5" height="56.5" rx="3" ry="3"/><rect class="cls-3" x="160.98" y="154.3" width="37.5" height="56.5" rx="3" ry="3"/><rect class="cls-3" x="220.98" y="74.3" width="37.5" height="56.5" rx="3" ry="3"/><rect class="cls-3" x="160.98" y="74.3" width="37.5" height="56.5" rx="3" ry="3"/><rect class="cls-4" x="291.3" y="120.36" width="133.74" height="212.93" rx="3" ry="3"/><rect class="cls-3" x="366.28" y="243.58" width="27.06" height="56.5" rx="3" ry="3"/><rect class="cls-3" x="322.99" y="243.58" width="27.06" height="56.5" rx="3" ry="3"/><rect class="cls-3" x="366.28" y="153.83" width="27.06" height="56.5" rx="3" ry="3"/><rect class="cls-3" x="322.99" y="153.83" width="27.06" height="56.5" rx="3" ry="3"/><rect class="cls-5" x="437.8" y="66.75" width="133.74" height="266.55" rx="3" ry="3"/><rect class="cls-3" x="453.79" y="205.98" width="103.48" height="37.11" rx="3" ry="3"/><rect class="cls-3" x="453.79" y="145.98" width="103.48" height="37.11" rx="3" ry="3"/><rect class="cls-3" x="453.79" y="85.98" width="103.48" height="37.11" rx="3" ry="3"/><line class="cls-6" x1="504.02" y1="205.98" x2="504.02" y2="243.09"/><line class="cls-6" x1="504.02" y1="145.98" x2="504.02" y2="183.09"/><line class="cls-6" x1="504.02" y1="85.98" x2="504.02" y2="123.09"/><rect class="cls-7" x="580.64" y="171.83" width="133.74" height="161.47" rx="3" ry="3"/><rect class="cls-3" x="671.81" y="195.47" width="21" height="43.85" rx="3" ry="3"/><rect class="cls-3" x="635.81" y="195.47" width="21" height="43.85" rx="3" ry="3"/><rect class="cls-3" x="602.21" y="195.47" width="21" height="43.85" rx="3" ry="3"/><rect class="cls-3" x="671.81" y="265.47" width="21" height="43.85" rx="3" ry="3"/><rect class="cls-3" x="635.81" y="265.47" width="21" height="43.85" rx="3" ry="3"/><rect class="cls-3" x="602.21" y="265.47" width="21" height="43.85" rx="3" ry="3"/></g><circle class="cls-8" cx="19.46" cy="91.97" r="19.46"/><ellipse class="cls-8" cx="48.41" cy="81.53" rx="21.83" ry="14.71"/><ellipse class="cls-8" cx="38.45" cy="110.48" rx="19.46" ry="14.24"/><ellipse class="cls-8" cx="64.55" cy="100.51" rx="22.78" ry="14.71"/><ellipse class="cls-8" cx="628.84" cy="88.41" rx="26.63" ry="16.76"/><ellipse class="cls-8" cx="668.46" cy="79.42" rx="29.88" ry="12.67"/><ellipse class="cls-8" cx="654.82" cy="104.35" rx="26.63" ry="12.26"/><ellipse class="cls-8" cx="690.54" cy="95.77" rx="31.17" ry="12.67"/><circle class="cls-8" cx="346.05" cy="30.05" r="23.24"/><ellipse class="cls-8" cx="380.63" cy="17.57" rx="26.08" ry="17.57"/><ellipse class="cls-8" cx="368.72" cy="52.16" rx="23.24" ry="17.01"/><ellipse class="cls-8" cx="399.91" cy="40.25" rx="27.21" ry="17.57"/><path class="cls-9" d="M39.86,333.44h.08c-2,0-3.27.46-3.27-1V261.9c0-1.42,1.33-2.46,3.35-2.46h-.16c2,0,3.81,1,3.81,2.46v70.58C43.67,333.9,41.87,333.44,39.86,333.44Z"/><path class="cls-10" d="M59,270.86c0-.05,0-.1,0-.15a20.38,20.38,0,0,0-1.94-6.3l-1.68.09a17.79,17.79,0,0,0-1.23-1.95l.82-1.49a20.16,20.16,0,0,0-4.9-4.59l-1.45.94a19.8,19.8,0,0,0-2-1.07l0-1.77a20.64,20.64,0,0,0-6.5-1.52l-.82,1.6a22.22,22.22,0,0,0-2.3.09L36,253.19h-.09a20.43,20.43,0,0,0-6.28,1.93l.09,1.83a17.79,17.79,0,0,0-2,1.23l-1.61-.89a20.79,20.79,0,0,0-4.53,4.88l1,1.54a19.88,19.88,0,0,0-1.08,2l-1.84,0a20.32,20.32,0,0,0-1.47,6.49l1.63.83a18,18,0,0,0,.09,2.31l-1.56.94a20.13,20.13,0,0,0,2,6.36l1.77-.09a21.42,21.42,0,0,0,1.23,1.95l-.84,1.55a20.82,20.82,0,0,0,4.93,4.53l1.45-.94a17.94,17.94,0,0,0,2,1.07l0,1.71A20.4,20.4,0,0,0,37.56,294l.75-1.48a22.67,22.67,0,0,0,2.33.22l.88,1.73h0c2.32,0,4.45-1.33,6.42-2.32l-.1-1.79a20,20,0,0,0,1.95-1.3l1.42.74a20.51,20.51,0,0,0,4.59-5l-.88-1.36A20,20,0,0,0,56,281.38l1.62,0a20.38,20.38,0,0,0,1.52-6.59L57.68,274a17.76,17.76,0,0,0-.09-2.3Z"/><line class="cls-11" x1="35.36" y1="261.32" x2="38.36" y2="263.32"/><line class="cls-11" x1="33.36" y1="275.32" x2="36.36" y2="273.32"/><line class="cls-11" x1="45.36" y1="269.32" x2="47.36" y2="274.32"/><line class="cls-11" x1="28.36" y1="266.32" x2="26.36" y2="269.32"/><line class="cls-11" x1="32.67" y1="283.94" x2="37.67" y2="283.94"/><line class="cls-11" x1="50.36" y1="280.32" x2="52.36" y2="278.32"/><line class="cls-11" x1="46.36" y1="262.32" x2="49.36" y2="264.32"/><polygon class="cls-12" points="281.33 269.68 269.61 322.44 295.01 322.44 281.33 269.68"/><line class="cls-13" x1="281.33" y1="270.68" x2="275.47" y2="319.53"/><line class="cls-14" x1="281.67" y1="321.44" x2="281.67" y2="333.44"/><polygon class="cls-12" points="300.87 283.36 289.15 322.44 314.55 322.44 300.87 283.36"/><line class="cls-14" x1="300.67" y1="321.44" x2="300.67" y2="333.44"/><line class="cls-13" x1="300.87" y1="290.22" x2="295.01" y2="319.53"/><rect class="cls-15" x="82.17" y="146.94" width="94" height="13" rx="1" ry="1"/><rect class="cls-16" x="202.67" y="101.44" width="115" height="232" rx="3" ry="3"/><path class="cls-16" d="M74.36,153.44h109a3.31,3.31,0,0,1,3.31,3.31V332.44a0,0,0,0,1,0,0h-115a0,0,0,0,1,0,0V156.13A2.69,2.69,0,0,1,74.36,153.44Z"/><rect class="cls-16" x="337.67" y="241.44" width="115" height="92" rx="3" ry="3"/><path class="cls-17" d="M477.67,228.44H665.25a3.42,3.42,0,0,1,3.42,3.42V332.44a0,0,0,0,1,0,0h-194a0,0,0,0,1,0,0v-101A3,3,0,0,1,477.67,228.44Z"/><rect class="cls-16" x="682.67" y="154.44" width="115" height="179" rx="3" ry="3"/><path class="cls-18" d="M74.67,153.44h53a0,0,0,0,1,0,0v181a0,0,0,0,1,0,0H74.36a2.69,2.69,0,0,1-2.69-2.69V156.44A3,3,0,0,1,74.67,153.44Z"/><rect class="cls-19" x="151.67" y="233.44" width="15" height="36" rx="3" ry="3"/><rect class="cls-19" x="121.67" y="233.44" width="15" height="36" rx="3" ry="3"/><rect class="cls-19" x="91.67" y="233.44" width="15" height="36" rx="3" ry="3"/><rect class="cls-19" x="151.67" y="173.44" width="15" height="36" rx="3" ry="3"/><rect class="cls-19" x="121.67" y="173.44" width="15" height="36" rx="3" ry="3"/><rect class="cls-19" x="91.67" y="173.44" width="15" height="36" rx="3" ry="3"/><path class="cls-19" d="M110.67,291.44h35a3,3,0,0,1,3,3v38a0,0,0,0,1,0,0h-41a0,0,0,0,1,0,0v-38A3,3,0,0,1,110.67,291.44Z"/><line class="cls-15" x1="127.17" y1="291.44" x2="127.17" y2="332.44"/><line class="cls-11" x1="119.67" y1="311.94" x2="136.67" y2="311.94"/><rect class="cls-10" x="196.67" y="95.44" width="128" height="13" rx="3" ry="3"/><path class="cls-18" d="M205.67,108.44h55a0,0,0,0,1,0,0v225a0,0,0,0,1,0,0H205.9a3.23,3.23,0,0,1-3.23-3.23V111.44A3,3,0,0,1,205.67,108.44Z"/><rect class="cls-19" x="214.67" y="254.44" width="92" height="21" rx="3" ry="3"/><line class="cls-20" x1="260.17" y1="254.44" x2="260.17" y2="275.44"/><rect class="cls-19" x="214.67" y="220.44" width="92" height="21" rx="3" ry="3"/><line class="cls-20" x1="260.17" y1="220.44" x2="260.17" y2="241.44"/><rect class="cls-19" x="214.67" y="186.44" width="92" height="21" rx="3" ry="3"/><line class="cls-20" x1="260.17" y1="186.44" x2="260.17" y2="207.44"/><rect class="cls-19" x="214.67" y="152.44" width="92" height="21" rx="3" ry="3"/><line class="cls-20" x1="260.17" y1="152.44" x2="260.17" y2="173.44"/><rect class="cls-19" x="214.67" y="118.44" width="92" height="21" rx="3" ry="3"/><line class="cls-20" x1="260.17" y1="118.44" x2="260.17" y2="139.44"/><path class="cls-19" d="M220.1,285.44h22.13a3.44,3.44,0,0,1,3.44,3.44v43.56a0,0,0,0,1,0,0h-29a0,0,0,0,1,0,0V288.87A3.44,3.44,0,0,1,220.1,285.44Z"/><rect class="cls-18" x="336.67" y="271.44" width="59" height="63" rx="3" ry="3"/><rect class="cls-21" x="221.17" y="307.94" width="4" height="4" rx="2" ry="2"/><line class="cls-22" x1="272.17" y1="318.44" x2="272.17" y2="331.44"/><line class="cls-22" x1="293.17" y1="318.44" x2="293.17" y2="331.44"/><polygon class="cls-10" points="270.6 261.4 257.7 319.44 285.65 319.44 270.6 261.4"/><polygon class="cls-23" points="292.09 269.9 279.2 319.94 307.14 319.94 292.09 269.9"/><line class="cls-24" x1="270.46" y1="262.84" x2="264.57" y2="318.82"/><line class="cls-20" x1="292.15" y1="273.72" x2="286.26" y2="319.15"/><path class="cls-19" d="M364.36,289.44h5a10.31,10.31,0,0,1,10.31,10.31v32.69a0,0,0,0,1,0,0h-25a0,0,0,0,1,0,0V299.13A9.69,9.69,0,0,1,364.36,289.44Z"/><rect class="cls-19" x="394.67" y="285.44" width="50" height="31" rx="3" ry="3"/><rect class="cls-21" x="358.17" y="310.94" width="4" height="4" rx="2" ry="2"/><line class="cls-20" x1="439.17" y1="286.44" x2="439.17" y2="300.44"/><line class="cls-20" x1="429.17" y1="286.44" x2="429.17" y2="300.44"/><line class="cls-20" x1="419.17" y1="286.44" x2="419.17" y2="300.44"/><line class="cls-20" x1="409.17" y1="286.44" x2="409.17" y2="300.44"/><line class="cls-20" x1="399.17" y1="286.44" x2="399.17" y2="300.44"/><line class="cls-20" x1="394.67" y1="300.94" x2="443.67" y2="300.94"/><path class="cls-10" d="M394.67,308.44h49a0,0,0,0,1,0,0v5.67a3.33,3.33,0,0,1-3.33,3.33H398a3.33,3.33,0,0,1-3.33-3.33v-5.67A0,0,0,0,1,394.67,308.44Z"/><path class="cls-10" d="M460.67,274.44a3,3,0,0,1-3,3h-124a3,3,0,0,1-3-3h0a3,3,0,0,1,3-3h124a3,3,0,0,1,3,3Z"/><polygon class="cls-25" points="339.16 239.44 451.2 239.44 464.75 272.44 326.3 272.44 339.16 239.44"/><polygon class="cls-18" points="395.36 239.44 339.36 239.44 326.3 272.44 395.53 271.44 395.36 239.44"/><path class="cls-18" d="M685.67,154.44h54a0,0,0,0,1,0,0v180a0,0,0,0,1,0,0H685.36a2.69,2.69,0,0,1-2.69-2.69V157.44A3,3,0,0,1,685.67,154.44Z"/><rect class="cls-19" x="698.67" y="255.44" width="82" height="21" rx="3" ry="3"/><line class="cls-20" x1="753.17" y1="255.44" x2="753.17" y2="276.44"/><line class="cls-20" x1="726.17" y1="255.44" x2="726.17" y2="276.44"/><rect class="cls-19" x="698.67" y="225.44" width="82" height="21" rx="3" ry="3"/><line class="cls-20" x1="753.17" y1="225.44" x2="753.17" y2="246.44"/><line class="cls-20" x1="726.17" y1="225.44" x2="726.17" y2="246.44"/><rect class="cls-19" x="698.67" y="195.44" width="82" height="21" rx="3" ry="3"/><line class="cls-20" x1="753.17" y1="195.44" x2="753.17" y2="216.44"/><line class="cls-20" x1="726.17" y1="195.44" x2="726.17" y2="216.44"/><rect class="cls-19" x="698.67" y="165.44" width="82" height="21" rx="3" ry="3"/><line class="cls-20" x1="753.17" y1="165.44" x2="753.17" y2="186.44"/><line class="cls-20" x1="726.17" y1="165.44" x2="726.17" y2="186.44"/><path class="cls-19" d="M703.1,285.44h22.13a3.44,3.44,0,0,1,3.44,3.44v43.56a0,0,0,0,1,0,0h-29a0,0,0,0,1,0,0V288.87A3.44,3.44,0,0,1,703.1,285.44Z"/><rect class="cls-21" x="704.17" y="307.94" width="4" height="4" rx="2" ry="2"/><rect class="cls-19" x="742.67" y="285.44" width="38" height="34" rx="3" ry="3"/><path class="cls-18" d="M477.67,228.44h94a0,0,0,0,1,0,0v106a0,0,0,0,1,0,0H477.36a2.69,2.69,0,0,1-2.69-2.69V231.44A3,3,0,0,1,477.67,228.44Z"/><line class="cls-20" x1="742.67" y1="302.94" x2="780.67" y2="302.94"/><line class="cls-26" x1="474.67" y1="255.44" x2="668.67" y2="255.44"/><path class="cls-26" d="M534.67,255.44h73a0,0,0,0,1,0,0v76a3,3,0,0,1-3,3H537.75a3.08,3.08,0,0,1-3.08-3.08V255.44A0,0,0,0,1,534.67,255.44Z"/><rect class="cls-10" x="544.67" y="262.44" width="53" height="12" rx="2" ry="2"/><path class="cls-19" d="M547.67,283.44h47.52a3.48,3.48,0,0,1,3.48,3.48v45.52a0,0,0,0,1,0,0h-54a0,0,0,0,1,0,0v-46A3,3,0,0,1,547.67,283.44Z"/><line class="cls-26" x1="571.67" y1="283.44" x2="571.67" y2="332.44"/><line class="cls-26" x1="576.67" y1="306.44" x2="576.67" y2="310.44"/><line class="cls-26" x1="566.67" y1="306.44" x2="566.67" y2="310.44"/><rect class="cls-19" x="620.67" y="271.44" width="36" height="40" rx="3" ry="3"/><rect class="cls-19" x="486.67" y="271.44" width="36" height="40" rx="3" ry="3"/><polygon class="cls-18" points="620.67 271.44 620.67 311.44 656.67 271.82 620.67 271.44"/><polygon class="cls-18" points="486.67 271.44 486.67 311.44 522.79 271.82 486.67 271.44"/><circle class="cls-10" cx="817.86" cy="271.44" r="25"/><ellipse class="cls-10" cx="842.86" cy="289.44" rx="14.87" ry="21.72"/><line class="cls-27" x1="817.67" y1="278.44" x2="817.67" y2="331.44"/><line class="cls-27" x1="843.67" y1="299.44" x2="843.67" y2="332.44"/><path class="cls-28" d="M817.67,246.44v50s-24.75,0-24.75-24.75S817.67,246.44,817.67,246.44Z"/><path class="cls-28" d="M843.67,268.44v43.05s-14.8,0-14.8-21.31S843.67,268.44,843.67,268.44Z"/><line class="cls-29" x1="5.67" y1="333.44" x2="869.67" y2="333.44"/></g></g></svg>